<svg width="20" height="19" viewBox="0 0 20 19" fill="none" xmlns="http://www.w3.org/2000/svg">
<path d="M19.4242 11.2137C19.5683 10.6118 19.6452 9.98763 19.6452 9.34642C19.6452 4.54198 15.3746 0.646892 10.1058 0.646892C9.55001 0.646892 9.0056 0.69095 8.47496 0.774565C7.6225 0.284481 6.61446 0 5.53214 0C2.47737 0 0 2.25832 0 5.04533C0 5.97623 0.277659 6.84768 0.760769 7.59595C0.634278 8.1623 0.567525 8.74737 0.567525 9.34666C0.567525 14.1509 4.8376 18.0457 10.1058 18.0457C10.703 18.0457 11.2863 17.9948 11.8536 17.9C12.6323 18.2809 13.5219 18.4981 14.4679 18.4981C17.5231 18.4981 20 16.2405 20 13.4535C19.9997 12.6479 19.792 11.8878 19.4242 11.2137ZM14.999 13.5042C14.5572 14.0729 13.905 14.5244 13.0609 14.8444C12.2237 15.1623 11.2217 15.3231 10.0793 15.3231C8.71002 15.3231 7.5612 15.1024 6.66459 14.6689C6.02382 14.3524 5.49525 13.9256 5.09422 13.3978C4.68877 12.8651 4.4828 12.336 4.4828 11.826C4.4828 11.5079 4.61734 11.2314 4.88124 11.0052C5.14253 10.7809 5.47707 10.6667 5.87681 10.6667C6.20434 10.6667 6.48745 10.7567 6.7168 10.9334C6.93627 11.1035 7.12484 11.3541 7.27549 11.6791C7.44484 12.0316 7.62951 12.33 7.82405 12.565C8.01055 12.7898 8.28041 12.9805 8.6243 13.1285C8.96949 13.278 9.43598 13.354 10.0095 13.354C10.798 13.354 11.445 13.2003 11.9305 12.8969C12.4061 12.601 12.637 12.2462 12.637 11.8113C12.637 11.4681 12.5159 11.1978 12.2679 10.9865C12.0087 10.7653 11.6666 10.5928 11.2508 10.4749C10.8173 10.3515 10.2279 10.2186 9.50014 10.0793C8.51054 9.88601 7.66977 9.65672 7.00017 9.39711C6.31628 9.13181 5.7646 8.76372 5.36175 8.30348C4.9524 7.83542 4.74461 7.24893 4.74461 6.55964C4.74461 5.90257 4.96227 5.31063 5.3924 4.79922C5.81915 4.29161 6.44225 3.89746 7.24354 3.62695C8.03574 3.35953 8.97755 3.22499 10.0425 3.22499C10.8944 3.22499 11.6435 3.31476 12.2684 3.49146C12.8972 3.67101 13.4271 3.91096 13.844 4.20847C14.2627 4.5074 14.5754 4.82694 14.7705 5.15879C14.9692 5.4942 15.0697 5.82842 15.0697 6.15152C15.0697 6.46229 14.938 6.74416 14.678 6.99075C14.4167 7.23828 14.0876 7.36358 13.6985 7.36358C13.3453 7.36358 13.0687 7.28541 12.877 7.13074C12.6983 6.98672 12.5128 6.76217 12.3079 6.43931C12.0697 6.02763 11.7824 5.70265 11.4521 5.47336C11.1313 5.25117 10.5952 5.13842 9.85961 5.13842C9.17495 5.13842 8.61885 5.26325 8.20665 5.51031C7.80847 5.74813 7.61549 6.02053 7.61549 6.34433C7.61549 6.54259 7.67756 6.70792 7.80535 6.85028C7.94172 7.00188 8.1321 7.13334 8.37444 7.24443C8.62508 7.35908 8.883 7.45075 9.1417 7.51565C9.40767 7.58316 9.85156 7.68264 10.4622 7.81079C11.2334 7.96262 11.9432 8.13151 12.5702 8.31461C13.2053 8.50008 13.7546 8.7289 14.2022 8.99467C14.6593 9.26541 15.0211 9.61432 15.2785 10.0303C15.5354 10.4483 15.6655 10.9631 15.6655 11.5621C15.6655 12.2789 15.4414 12.9322 14.999 13.5042Z" fill="white"/>
</svg>
