<svg width="18" height="19" viewBox="0 0 18 19" fill="none" xmlns="http://www.w3.org/2000/svg">
<path d="M17.362 12.3949L13.0201 10.5033L11.1841 9.70328C11.986 9.24189 12.6372 8.52979 13.0634 7.67182C13.4016 6.99062 13.6029 6.21977 13.6029 5.39523C13.6029 4.93257 13.5225 4.4932 13.4105 4.06929C12.8646 2.01529 11.1081 0.501953 8.99958 0.501953C6.93095 0.501953 5.20084 1.96135 4.62109 3.95736C4.48745 4.41521 4.39513 4.89129 4.39513 5.39574C4.39513 6.27168 4.61915 7.08837 4.99983 7.79869C5.43984 8.62272 6.09223 9.30216 6.88631 9.73899L5.12792 10.4868L0.645184 12.3937C0.255911 12.5603 0 12.9614 0 13.4094V17.2236V17.9081C0 18.5111 0.459974 19.0001 1.02808 19.0001H16.9719C17.5397 19.0001 18 18.5113 18 17.9081V17.2236V13.4091C17.9994 12.9627 17.7477 12.5654 17.362 12.3949Z" fill="white"/>
</svg>
