<svg width="20" height="19" viewBox="0 0 20 19" fill="none" xmlns="http://www.w3.org/2000/svg">
<path d="M19.9887 14.5986C19.941 14.3258 19.7561 14.0927 19.4792 13.9542L15.3835 11.7216L15.3498 11.7041C15.1844 11.6256 14.993 11.5852 14.7964 11.5852C14.4532 11.5852 14.1255 11.7054 13.8981 11.9164L12.6892 13.0353C12.6375 13.0808 12.4689 13.1466 12.4178 13.149C12.4038 13.1479 11.0112 13.0551 8.4475 10.683C5.88835 8.31582 5.77978 7.02347 5.77892 7.02347C5.78035 6.95739 5.85064 6.80195 5.90064 6.75384L6.9315 5.80038C7.29464 5.46361 7.4035 4.90533 7.18807 4.47287L4.91149 0.509644C4.74606 0.194553 4.42463 0 4.06806 0C3.81577 0 3.57234 0.0967479 3.38206 0.272533L0.57205 2.86648C0.30262 3.11443 0.0706192 3.54795 0.0200476 3.89688C-0.0045239 4.06367 -0.503097 8.04514 5.39692 13.5045C10.4058 18.1381 14.3115 18.4981 15.3901 18.4981C15.6221 18.4981 15.7572 18.4828 15.7832 18.4794C16.1592 18.4328 16.6272 18.2187 16.895 17.9705L19.7027 15.3731C19.9318 15.1601 20.0364 14.8785 19.9887 14.5986Z" fill="white"/>
</svg>
